<?xml version="1.0" encoding="utf-8"?>
<!-- Generator: Adobe Illustrator 25.0.0, SVG Export Plug-In . SVG Version: 6.00 Build 0)  -->
<svg version="1.1" id="Layer_1" xmlns="http://www.w3.org/2000/svg" xmlns:xlink="http://www.w3.org/1999/xlink" x="0px" y="0px"
	 viewBox="0 0 337 237" style="enable-background:new 0 0 337 237;" xml:space="preserve">
<style type="text/css">
	.st0{fill:#FFFFFF;}
</style>
<g>
	<g>
		<path class="st0" d="M291.42,160.5c-0.11-0.14-0.24-0.27-0.35-0.41c-1.57-1.74-3.16-3.47-4.78-5.16
			c-6.2-6.5-12.76-12.57-19.67-18.19c-2.51-2.08-5.09-4.07-7.7-6.03c-4.95-3.67-10.06-7.14-15.36-10.38h-0.01
			c-0.51-0.32-1.01-0.65-1.53-0.96c-2.05-1.24-4.12-2.43-6.2-3.6c-3.96-2.21-7.99-4.26-12.1-6.11c-2.56-1.17-5.14-2.26-7.74-3.27
			c-3.33-1.28-6.7-2.44-10.13-3.46c-2.58-0.77-5.2-1.46-7.84-2.07c-1.45-0.34-2.89-0.63-4.36-0.91c-1.52-0.3-3.06-0.53-4.59-0.74
			c-2.6-0.37-5.21-0.65-7.83-0.91c-2.39-0.25-4.78-0.51-7.17-0.79c-0.1-0.01-0.2-0.01-0.29-0.01h-3.86c-0.13,0-0.25,0-0.37,0.03
			c-0.81,0.11-1.62,0.28-2.42,0.31c-0.66,0.03-1.32,0.06-1.98,0.11c-2.74,0.13-5.47,0.38-8.16,0.74c-2.61,0.34-5.18,0.76-7.74,1.29
			h-0.01c-2.85,0.56-5.69,1.25-8.49,2.02c-2.57,0.72-5.11,1.52-7.63,2.4c-3.16,1.07-6.28,2.28-9.37,3.6
			c-2.56,1.08-5.09,2.23-7.6,3.46c-0.24,0.11-0.49,0.24-0.73,0.35c-3.55,1.74-7.02,3.58-10.42,5.54c-2.59,1.46-5.14,2.99-7.64,4.59
			c-4.88,3.08-9.58,6.36-14.16,9.85c-2.57,1.97-5.1,3.98-7.57,6.04c-6.38,5.32-12.45,11.04-18.28,17.1
			c-0.83,0.86-1.66,1.73-2.49,2.61c-0.89,0.94-1.71,1.92-2.56,2.91c-0.55,0.65-0.72,1.5-0.49,2.29c0.08,0.35,0.25,0.69,0.49,0.97
			c0.1,0.11,0.2,0.22,0.3,0.34c14.32,16.02,30.66,29.62,49.05,40.73c15.06,9.1,30.99,16.11,48.36,19.4
			c6.45,1.24,13.05,1.66,19.58,2.44c0.1,0.01,0.2,0.01,0.3,0.01h3.86c0.13,0,0.25,0,0.38-0.01c0.8-0.13,1.6-0.29,2.4-0.32
			c18.4-0.66,35.57-6.07,51.95-14.09c19.39-9.5,36.57-22.2,52.07-37.19c3.71-3.58,7.21-7.39,10.78-11.14
			c0.31-0.34,0.52-0.73,0.62-1.14C292.14,161.98,291.97,161.15,291.42,160.5z M80.19,179.71c-5.8-4.92-11.27-10.23-16.86-15.37
			c-0.21-0.18-0.39-0.38-0.59-0.59c-0.28-0.29-0.48-0.63-0.58-1h47.33c-0.18,20.33,10.2,38.52,26.26,49.59
			C115.11,205.21,96.86,193.81,80.19,179.71z M131.21,115.46c-1.98,1.7-3.84,3.53-5.58,5.48c-1.63,1.8-3.15,3.71-4.55,5.7
			c-1.5,2.12-2.87,4.33-4.09,6.63c-1.17,2.16-2.21,4.43-3.1,6.74c-0.94,2.4-1.74,4.89-2.39,7.43c-0.63,2.43-1.12,4.93-1.45,7.49
			h-41.7c2.53-2.42,5.06-4.78,7.67-7.05c2.96-2.57,5.98-5.09,9.05-7.52c2.6-2.04,5.24-4.03,7.92-5.94
			c3.93-2.84,7.95-5.51,12.08-8.02c2.56-1.56,5.17-3.05,7.83-4.48c0.59-0.32,1.18-0.63,1.77-0.94c2.44-1.28,4.89-2.5,7.36-3.64
			c2.56-1.19,5.13-2.3,7.71-3.34c2.09-0.83,4.21-1.62,6.34-2.35C134.4,112.83,132.77,114.11,131.21,115.46z M195.86,162.08
			c0,0.22,0,0.45-0.01,0.67c0,0.25-0.01,0.52-0.03,0.77c-0.74,12.59-11.2,22.58-23.97,22.58c-12.78,0-23.24-9.99-23.98-22.58
			c-0.01-0.25-0.03-0.52-0.03-0.77c-0.01-0.22-0.01-0.45-0.01-0.67c0-0.53,0.01-1.07,0.06-1.6c0.07-1.07,0.21-2.12,0.42-3.15
			c0.15-0.81,0.37-1.62,0.6-2.39c0.28-0.91,0.62-1.8,1-2.66c0.35-0.8,0.76-1.56,1.18-2.3c0.45-0.74,0.91-1.46,1.43-2.15
			c0.53-0.72,1.1-1.4,1.7-2.07c0.56-0.62,1.15-1.19,1.78-1.73c0.67-0.59,1.38-1.15,2.12-1.66c0.69-0.49,1.39-0.93,2.14-1.33
			c0.77-0.42,1.56-0.81,2.37-1.15c0.83-0.34,1.67-0.63,2.53-0.87c0.81-0.25,1.64-0.44,2.49-0.58c0.96-0.18,1.94-0.3,2.94-0.35
			c0.42-0.01,0.84-0.03,1.26-0.03c0.38,0,0.74,0.01,1.12,0.03c1.14,0.06,2.25,0.18,3.34,0.39c0.72,0.13,1.42,0.3,2.11,0.51
			c1.26,0.34,2.47,0.8,3.64,1.35c0.58,0.27,1.14,0.56,1.69,0.89c1.29,0.73,2.5,1.59,3.62,2.54c0.41,0.35,0.81,0.72,1.19,1.08
			c1.21,1.17,2.29,2.44,3.22,3.85c0.24,0.37,0.48,0.73,0.72,1.11c0.94,1.6,1.71,3.32,2.28,5.13c0.1,0.32,0.2,0.65,0.28,0.98
			c0.52,1.94,0.79,3.98,0.8,6.07L195.86,162.08L195.86,162.08z M209.95,112.46c2.66,0.96,5.27,2.01,7.87,3.15
			c3.39,1.46,6.74,3.06,10.06,4.78c0.03,0.01,0.04,0.03,0.07,0.04c2.68,1.39,5.31,2.84,7.9,4.37c4.58,2.66,9.02,5.52,13.33,8.54
			c2.73,1.91,5.41,3.89,8.04,5.93c6.29,4.89,12.34,10.13,18.14,15.68H231.7c-0.3-2.87-0.81-5.68-1.56-8.42
			c-0.65-2.54-1.48-5.03-2.47-7.43c-1.05-2.57-2.3-5.06-3.71-7.45c-1.31-2.25-2.78-4.41-4.38-6.48c-1.64-2.11-3.43-4.12-5.34-6
			c-1.84-1.83-3.81-3.54-5.89-5.11c-1.92-1.49-3.93-2.85-6.03-4.1C204.89,110.7,207.44,111.54,209.95,112.46z M280.93,164.2
			c-6.73,6-13.19,11.97-19.96,17.58c-16.89,14.01-35.46,25.06-56.45,31.72c16-10.76,26.83-29.18,27.51-50.41v-0.34h49.71
			C281.64,163.28,281.38,163.8,280.93,164.2z"/>
	</g>
	<g>
		<g>
			<g>
				<path class="st0" d="M210.58,19.63l-20.43,76.24c-2.77-0.39-5.56-0.69-8.34-0.97l20.73-77.41c0.6-2.23,2.89-3.55,5.12-2.95
					C209.86,15.14,211.17,17.43,210.58,19.63z"/>
			</g>
		</g>
		<g>
			<g>
				<path class="st0" d="M278.46,55.65l-51.37,51.37c-2.73-1.24-5.48-2.41-8.25-3.49l53.75-53.75c1.62-1.63,4.27-1.63,5.87,0
					C280.09,51.4,280.09,54.05,278.46,55.65z"/>
			</g>
		</g>
		<g>
			<g>
				<path class="st0" d="M322.65,122.52l-49.84,13.36c-2.68-2.22-5.42-4.34-8.21-6.42l55.9-14.98c2.22-0.58,4.49,0.73,5.09,2.95
					C326.2,119.64,324.87,121.92,322.65,122.52z"/>
			</g>
		</g>
		<g>
			<g>
				<path class="st0" d="M77.29,130.6c-2.74,2.1-5.44,4.24-8.07,6.44L16.9,123.02c-2.23-0.6-3.55-2.88-2.95-5.09
					c0.6-2.23,2.89-3.52,5.09-2.94L77.29,130.6z"/>
			</g>
		</g>
		<g>
			<g>
				<path class="st0" d="M120.53,105.25c-2.73,1.15-5.42,2.38-8.1,3.68L53.48,49.99c-1.62-1.63-1.62-4.27,0-5.9
					c1.63-1.62,4.25-1.62,5.89,0L120.53,105.25z"/>
			</g>
		</g>
		<g>
			<g>
				<path class="st0" d="M155.96,95.32c-2.79,0.36-5.53,0.81-8.25,1.38h-0.01l-22.57-84.28c-0.6-2.22,0.72-4.49,2.94-5.09
					c2.23-0.58,4.51,0.73,5.11,2.95L155.96,95.32z"/>
			</g>
		</g>
	</g>
</g>
</svg>
