<?xml version="1.0" encoding="utf-8"?>
<!-- Generator: Adobe Illustrator 25.0.0, SVG Export Plug-In . SVG Version: 6.00 Build 0)  -->
<svg version="1.1" id="Layer_1" xmlns="http://www.w3.org/2000/svg" xmlns:xlink="http://www.w3.org/1999/xlink" x="0px" y="0px"
	 viewBox="0 0 337 237" style="enable-background:new 0 0 337 237;" xml:space="preserve">
<style type="text/css">
	.st0{fill:#781614;}
	.st1{fill:#FFFFFF;}
</style>
<g>
	<g>
		<g>
			<path class="st1" d="M129.46,212.58l20.38-76.25c2.77,0.39,5.56,0.69,8.34,0.97l-20.67,77.42c-0.6,2.23-2.89,3.55-5.12,2.95
				C130.19,217.07,128.87,214.78,129.46,212.58z"/>
		</g>
	</g>
	<g>
		<g>
			<path class="st1" d="M61.56,176.61l51.33-51.4c2.73,1.24,5.48,2.41,8.25,3.48l-53.71,53.78c-1.62,1.63-4.27,1.64-5.87,0
				C59.93,180.86,59.92,178.21,61.56,176.61z"/>
		</g>
	</g>
	<g>
		<g>
			<path class="st1" d="M17.32,109.77l49.83-13.39c2.68,2.21,5.42,4.34,8.21,6.42l-55.89,15.01c-2.22,0.59-4.49-0.73-5.09-2.95
				C13.77,112.65,15.1,110.37,17.32,109.77z"/>
		</g>
	</g>
	<g>
		<g>
			<path class="st1" d="M262.67,101.52c2.74-2.1,5.43-4.24,8.07-6.44l52.33,13.98c2.23,0.6,3.55,2.87,2.95,5.09
				c-0.6,2.23-2.89,3.52-5.09,2.94L262.67,101.52z"/>
		</g>
	</g>
	<g>
		<g>
			<path class="st1" d="M219.45,126.91c2.72-1.15,5.42-2.38,8.1-3.69l58.98,58.9c1.62,1.63,1.62,4.27,0,5.9
				c-1.63,1.62-4.25,1.62-5.89,0L219.45,126.91z"/>
		</g>
	</g>
	<g>
		<g>
			<path class="st1" d="M184.03,136.86c2.79-0.36,5.53-0.81,8.25-1.38l0.01,0l22.62,84.27c0.6,2.22-0.72,4.49-2.93,5.09
				c-2.23,0.59-4.51-0.73-5.11-2.95L184.03,136.86z"/>
		</g>
	</g>
</g>
<path class="st1" d="M281.94,69.84c-5.62,5.81-11.47,11.31-17.61,16.44c-2.47,2.07-5,4.08-7.57,6.05
	c-4.57,3.49-9.28,6.78-14.15,9.86c-2.5,1.6-5.06,3.13-7.64,4.6c-3.4,1.95-6.87,3.79-10.42,5.54c-0.24,0.11-0.49,0.24-0.73,0.35
	c-2.52,1.22-5.04,2.38-7.6,3.46c-3.09,1.32-6.21,2.53-9.37,3.6c-2.51,0.89-5.06,1.69-7.63,2.41c-2.79,0.78-5.63,1.47-8.48,2.03
	h-0.01c-2.56,0.53-5.13,0.96-7.74,1.3c-2.7,0.36-5.43,0.62-8.17,0.75c-0.66,0.05-1.32,0.08-1.98,0.11c-0.8,0.03-1.6,0.2-2.41,0.31
	c-0.12,0.03-0.24,0.03-0.37,0.03h-3.86c-0.1,0-0.2,0-0.3-0.01c-2.39-0.28-4.77-0.53-7.16-0.78c-2.62-0.27-5.23-0.55-7.83-0.91
	c-1.53-0.21-3.08-0.45-4.59-0.74c-1.47-0.28-2.91-0.58-4.36-0.91c-2.64-0.61-5.25-1.29-7.84-2.06c-3.43-1.01-6.8-2.18-10.13-3.45
	c-2.6-1.01-5.19-2.11-7.75-3.27c-4.1-1.85-8.13-3.9-12.1-6.1c-2.08-1.17-4.14-2.36-6.19-3.6c-0.52-0.31-1.03-0.63-1.54-0.95H96.4
	c-5.3-3.24-10.41-6.71-15.36-10.37c-2.62-1.95-5.19-3.95-7.7-6.03C66.66,82.09,60.31,76.25,54.3,70h-6.36
	c-0.04,0.62,0.15,1.25,0.58,1.76c0.12,0.14,0.24,0.27,0.35,0.41c1.58,1.74,3.17,3.47,4.78,5.15c6.2,6.5,12.77,12.57,19.69,18.18
	c2.51,2.08,5.08,4.08,7.7,6.03c4.95,3.66,10.06,7.13,15.36,10.37h0.01c0.51,0.32,1.02,0.64,1.54,0.95c2.05,1.24,4.11,2.43,6.19,3.6
	c3.97,2.2,8,4.25,12.1,6.1c2.56,1.16,5.15,2.26,7.75,3.27c3.33,1.27,6.7,2.44,10.13,3.45c2.59,0.77,5.2,1.45,7.84,2.06
	c1.45,0.33,2.89,0.63,4.36,0.91c1.51,0.29,3.06,0.53,4.59,0.74c2.6,0.36,5.21,0.64,7.83,0.91c2.39,0.25,4.77,0.5,7.16,0.78
	c0.1,0.01,0.2,0.01,0.3,0.01h3.86c0.13,0,0.25,0,0.37-0.03c0.81-0.11,1.61-0.28,2.41-0.31c0.66-0.03,1.32-0.06,1.98-0.11
	c2.74-0.13,5.47-0.39,8.17-0.75c2.61-0.34,5.18-0.77,7.74-1.3h0.01c2.85-0.56,5.69-1.25,8.48-2.03c2.57-0.72,5.12-1.52,7.63-2.41
	c3.16-1.07,6.28-2.28,9.37-3.6c2.56-1.08,5.08-2.24,7.6-3.46c0.24-0.11,0.49-0.24,0.73-0.35c3.55-1.75,7.02-3.59,10.42-5.54
	c2.58-1.47,5.14-3,7.64-4.6c4.87-3.08,9.58-6.37,14.15-9.86c2.57-1.97,5.1-3.98,7.57-6.05c6.38-5.33,12.44-11.05,18.27-17.11
	c0.83-0.85,1.65-1.73,2.48-2.61c0.89-0.94,1.72-1.93,2.56-2.91c0.44-0.52,0.62-1.17,0.57-1.81H281.94z"/>
</svg>
