<?xml version="1.0" encoding="utf-8"?>
<!-- Generator: Adobe Illustrator 25.0.0, SVG Export Plug-In . SVG Version: 6.00 Build 0)  -->
<svg version="1.1" id="Layer_1" xmlns="http://www.w3.org/2000/svg" xmlns:xlink="http://www.w3.org/1999/xlink" x="0px" y="0px"
	 viewBox="0 0 908 380" style="enable-background:new 0 0 908 380;" xml:space="preserve">
<style type="text/css">
	.st0{fill:#781614;}
	.st1{fill:#FFFFFF;}
</style>
<g>
	<g>
		<path d="M559.87,160.74c-0.11-0.15-0.24-0.27-0.35-0.41c-1.57-1.74-3.16-3.47-4.78-5.16c-6.19-6.5-12.75-12.57-19.67-18.19
			c-2.51-2.08-5.08-4.08-7.7-6.03c-4.94-3.67-10.05-7.14-15.35-10.38H512c-0.5-0.32-1.01-0.65-1.53-0.96
			c-2.05-1.23-4.11-2.43-6.19-3.59c-3.96-2.21-8-4.26-12.1-6.11c-2.56-1.17-5.14-2.27-7.74-3.28c-3.33-1.28-6.7-2.44-10.13-3.45
			c-2.58-0.78-5.2-1.46-7.84-2.07c-1.45-0.34-2.89-0.63-4.35-0.91c-1.52-0.3-3.07-0.54-4.6-0.75c-2.6-0.36-5.21-0.64-7.82-0.91
			c-2.39-0.25-4.78-0.51-7.17-0.79c-0.1-0.01-0.19-0.01-0.29-0.01h-3.87c-0.12,0-0.25,0-0.36,0.03c-0.82,0.11-1.62,0.28-2.42,0.31
			c-0.66,0.02-1.32,0.05-1.98,0.11c-2.74,0.13-5.46,0.38-8.16,0.74c-2.61,0.34-5.19,0.76-7.74,1.3h-0.02
			c-2.85,0.56-5.69,1.25-8.48,2.02c-2.57,0.72-5.12,1.52-7.63,2.4c-3.16,1.07-6.28,2.28-9.37,3.6c-2.56,1.08-5.09,2.23-7.6,3.45
			c-0.24,0.12-0.49,0.24-0.73,0.36c-3.56,1.74-7.03,3.58-10.43,5.53c-2.58,1.46-5.14,2.99-7.64,4.59
			c-4.88,3.08-9.58,6.37-14.16,9.85c-2.57,1.97-5.1,3.98-7.57,6.04c-6.38,5.33-12.45,11.05-18.28,17.1
			c-0.83,0.86-1.66,1.73-2.49,2.61c-0.88,0.95-1.71,1.93-2.56,2.91c-0.54,0.65-0.71,1.51-0.49,2.29c0.09,0.35,0.26,0.69,0.49,0.97
			c0.1,0.11,0.2,0.23,0.3,0.34c14.32,16.02,30.65,29.62,49.04,40.73c15.07,9.1,31,16.11,48.36,19.4c6.45,1.24,13.05,1.66,19.59,2.44
			c0.09,0.02,0.19,0.02,0.29,0.02h3.86c0.13,0,0.26,0,0.38-0.02c0.8-0.12,1.61-0.29,2.41-0.32c18.4-0.66,35.57-6.07,51.95-14.09
			c19.39-9.5,36.57-22.2,52.07-37.19c3.7-3.58,7.2-7.39,10.77-11.14c0.31-0.34,0.52-0.73,0.62-1.14
			C560.59,162.21,560.42,161.38,559.87,160.74z M348.64,179.94c-5.8-4.92-11.27-10.23-16.86-15.37c-0.21-0.18-0.39-0.38-0.59-0.59
			c-0.28-0.29-0.47-0.63-0.57-1h47.33c-0.18,20.33,10.2,38.53,26.26,49.6C383.55,205.44,365.3,194.05,348.64,179.94z M399.65,115.69
			c-1.98,1.7-3.83,3.53-5.57,5.48c-1.63,1.8-3.15,3.71-4.56,5.71c-1.5,2.12-2.86,4.32-4.08,6.63c-1.17,2.16-2.21,4.42-3.11,6.74
			c-0.94,2.4-1.74,4.89-2.39,7.43c-0.63,2.43-1.12,4.93-1.44,7.49h-41.7c2.53-2.41,5.06-4.77,7.67-7.05
			c2.96-2.57,5.98-5.09,9.05-7.52c2.6-2.03,5.24-4.03,7.92-5.94c3.93-2.84,7.95-5.51,12.08-8.02c2.56-1.56,5.17-3.05,7.83-4.48
			c0.59-0.33,1.18-0.64,1.77-0.94c2.44-1.28,4.89-2.51,7.36-3.64c2.56-1.2,5.13-2.31,7.71-3.35c2.1-0.83,4.22-1.61,6.34-2.34
			C402.84,113.07,401.21,114.35,399.65,115.69z M478.4,112.69c2.65,0.95,5.27,2.01,7.87,3.14c3.38,1.47,6.74,3.07,10.06,4.78
			c0.02,0.02,0.04,0.03,0.07,0.04c2.68,1.39,5.31,2.84,7.89,4.37c4.58,2.66,9.02,5.52,13.33,8.54c2.73,1.91,5.41,3.9,8.04,5.93
			c6.29,4.89,12.34,10.13,18.14,15.68h-43.65c-0.3-2.86-0.82-5.67-1.56-8.41c-0.65-2.55-1.48-5.03-2.47-7.44
			c-1.06-2.57-2.31-5.05-3.71-7.44c-1.31-2.25-2.79-4.41-4.39-6.48c-1.64-2.11-3.43-4.11-5.34-6c-1.84-1.82-3.8-3.54-5.88-5.11
			c-1.93-1.49-3.94-2.85-6.03-4.1C473.34,110.93,475.88,111.77,478.4,112.69z M549.38,164.43c-6.73,6-13.2,11.97-19.97,17.58
			c-16.89,14-35.46,25.06-56.45,31.72c16-10.76,26.84-29.18,27.51-50.41v-0.34h49.71C550.09,163.52,549.82,164.04,549.38,164.43z"/>
	</g>
	<g>
		<g>
			<g>
				<path class="st0" d="M479.02,19.87L458.6,96.11c-2.77-0.39-5.56-0.69-8.34-0.97l20.73-77.41c0.6-2.23,2.89-3.55,5.12-2.95
					C478.3,15.37,479.62,17.67,479.02,19.87z"/>
			</g>
		</g>
		<g>
			<g>
				<path class="st0" d="M546.91,55.88l-51.37,51.37c-2.73-1.24-5.48-2.41-8.25-3.49l53.75-53.75c1.62-1.63,4.27-1.63,5.87,0
					C548.54,51.63,548.54,54.28,546.91,55.88z"/>
			</g>
		</g>
		<g>
			<g>
				<path class="st0" d="M591.1,122.75l-49.84,13.36c-2.68-2.22-5.42-4.34-8.21-6.42l55.9-14.98c2.22-0.58,4.49,0.73,5.09,2.95
					C594.65,119.87,593.31,122.15,591.1,122.75z"/>
			</g>
		</g>
		<g>
			<g>
				<path class="st0" d="M345.74,130.83c-2.74,2.1-5.44,4.24-8.07,6.44l-52.32-14.02c-2.23-0.6-3.55-2.88-2.95-5.09
					c0.6-2.23,2.89-3.52,5.09-2.94L345.74,130.83z"/>
			</g>
		</g>
		<g>
			<g>
				<path class="st0" d="M388.98,105.48c-2.73,1.15-5.42,2.38-8.1,3.68l-58.94-58.94c-1.62-1.63-1.62-4.27,0-5.9
					c1.63-1.62,4.25-1.62,5.89,0L388.98,105.48z"/>
			</g>
		</g>
		<g>
			<g>
				<path class="st0" d="M424.41,95.55c-2.79,0.36-5.53,0.81-8.25,1.38h-0.01l-22.57-84.28c-0.6-2.22,0.72-4.49,2.94-5.09
					c2.23-0.58,4.51,0.73,5.11,2.95L424.41,95.55z"/>
			</g>
		</g>
	</g>
</g>
<g>
	<path class="st0" d="M66.1,367.09c-12.46,0-23.27-2.52-32.44-7.55c-9.17-5.03-16.27-11.95-21.3-20.76
		c-5.03-8.81-7.55-18.78-7.55-29.92c0-8.74,1.74-16.98,5.21-24.71c3.47-7.73,8.21-14.53,14.2-20.4
		c5.99-5.87,12.82-10.48,20.49-13.84c7.67-3.35,15.75-5.03,24.26-5.03c6.11,0,11.29,0.39,15.55,1.17c4.25,0.78,8.03,1.8,11.32,3.06
		c3.29,1.26,6.62,2.73,9.97,4.4l1.62,32.71h-3.23l-14.38-25.16c-3.71-2.52-7.07-4.34-10.06-5.48c-3-1.14-6.47-1.71-10.42-1.71
		c-7.79,0-14.8,2.15-21.03,6.47c-6.23,4.31-11.14,10.36-14.74,18.15c-3.59,7.79-5.39,16.78-5.39,26.96c0,10.9,1.74,20.25,5.21,28.04
		c3.47,7.79,8.18,13.78,14.11,17.97c5.93,4.2,12.55,6.29,19.86,6.29c5.39,0,10.03-0.72,13.93-2.15c3.89-1.44,7.52-3.17,10.87-5.21
		L106,328.27h3.06l-2.34,29.65c-5.03,2.76-10.75,4.97-17.16,6.65C83.15,366.25,75.33,367.09,66.1,367.09z"/>
	<path class="st0" d="M133.32,365.3v-2.88l15.1-7.37v-98.13l-15.1-7.37v-2.87h55.35c12.58,0,22.49,2.61,29.74,7.82
		c7.25,5.21,10.87,12.37,10.87,21.48c0,6.71-2.25,12.55-6.74,17.52c-4.49,4.97-10.4,8.84-17.7,11.59l33.61,50.5l12.58,6.83v2.88
		h-33.61l-33.97-54.81h-12.58v44.39l13.48,7.55v2.88H133.32z M180.05,256.57h-9.17v44.75h10.24c7.43,0,13.45-2.1,18.06-6.29
		c4.61-4.19,6.92-9.64,6.92-16.35c0-6.95-2.28-12.37-6.83-16.26C194.72,258.51,188.31,256.57,180.05,256.57z"/>
	<path class="st0" d="M290.22,365.3v-2.88l16.17-7.37v-45.11l-39.54-53.92l-11.68-6.47v-2.87h50.68v2.87l-13.48,6.47v0.72L324,299.7
		l28.58-42.59v-0.72l-13.66-6.83v-2.87h39.72v2.87l-11.5,5.93l-38.1,54.28v45.29l16,7.37v2.88H290.22z"/>
	<path class="st0" d="M393.37,365.3v-2.88l15.1-7.37v-98.13l-15.1-7.37v-2.87h55.89c14.14,0,25.49,2.54,34.06,7.64
		c8.57,5.09,12.85,13.21,12.85,24.35c0,6.71-2.25,12.61-6.74,17.7c-4.49,5.09-10.6,9.08-18.33,11.95
		c-7.73,2.88-16.44,4.31-26.15,4.31h-14.02v42.41l17.61,7.37v2.88H393.37z M430.94,256.57v46.91h11.5c9.46,0,16.89-2.19,22.29-6.56
		c5.39-4.37,8.09-9.91,8.09-16.62c0-8.39-2.73-14.44-8.18-18.15c-5.45-3.71-13.27-5.57-23.45-5.57H430.94z"/>
	<path class="st0" d="M513.61,365.3v-2.88l15.1-7.37v-98.13l-15.1-7.37v-2.87h57.87c13.78,0,25.49,2.34,35.13,7.01
		c9.64,4.67,17.01,11.08,22.11,19.23c5.09,8.15,7.64,17.37,7.64,27.68c0,9.35-1.65,17.97-4.94,25.88
		c-3.3,7.91-7.91,14.74-13.84,20.49c-5.93,5.75-12.94,10.24-21.03,13.48c-8.09,3.23-16.87,4.85-26.33,4.85H513.61z M565.37,256.57
		h-14.2v98.85h16.89c9.46,0,17.52-2.01,24.17-6.02c6.65-4.01,11.74-9.7,15.28-17.07c3.53-7.37,5.3-16.09,5.3-26.15
		c0-15.1-4.04-27.14-12.13-36.12C592.59,261.06,580.82,256.57,565.37,256.57z"/>
	<path class="st0" d="M656.48,365.3v-2.88l15.1-7.37v-98.13l-15.1-7.37v-2.87h93.99v31.09h-2.88l-12.4-21.2h-41.16v42.59h28.93
		l9.71-15.28h2.87v40.08h-2.87l-9.71-14.92h-28.93v46.37h45.65l12.94-25.16h2.88v35.05H656.48z"/>
	<path class="st0" d="M773.48,365.3v-2.88l13.84-7.01l37.56-47.27l-37.38-52.12l-11.68-6.47v-2.87h53.38v2.87l-14.2,6.83v0.9
		l26.06,35.41l28.22-35.41v-0.72l-13.84-7.01v-2.87h40.26v2.87l-11.5,6.29l-36.66,45.47l39.72,53.92l12.76,7.19v2.88h-54.28v-2.88
		l12.94-6.65v-0.72l-27.68-38.28l-29.83,38.1l-0.18,0.72l14.56,6.83v2.88H773.48z"/>
</g>
</svg>
