<?xml version="1.0" encoding="utf-8"?>
<!-- Generator: Adobe Illustrator 25.0.0, SVG Export Plug-In . SVG Version: 6.00 Build 0)  -->
<svg version="1.1" id="Layer_1" xmlns="http://www.w3.org/2000/svg" xmlns:xlink="http://www.w3.org/1999/xlink" x="0px" y="0px"
	 viewBox="0 0 25 20" style="enable-background:new 0 0 25 20;" xml:space="preserve">
<style type="text/css">
	.st0{fill-rule:evenodd;clip-rule:evenodd;fill:#FFFFFF;}
</style>
<path class="st0" d="M1.07,0.49C0.45,0.52-0.03,1.05,0,1.66c0.04,0.62,0.57,1.09,1.18,1.06h3.85l0.54,2.02
	c0.01,0.14,0.04,0.27,0.09,0.4l0.02,0.02l2.41,9.11l0.24,0.84h13.55l0.24-0.84l2.5-9.3L25,3.56H7.61L7.02,1.33L6.78,0.49H1.19
	C1.15,0.49,1.11,0.49,1.07,0.49z M8.2,5.79h3.14l0.61,2.67H8.9L8.2,5.79z M12.92,5.79h5.05l-0.61,2.67h-3.82
	C13.53,8.46,12.92,5.79,12.92,5.79z M19.55,5.79h2.5l-0.71,2.67h-2.41C18.93,8.46,19.55,5.79,19.55,5.79z M9.38,10.21h2.97
	l0.64,2.67h-2.9L9.38,10.21z M13.95,10.21h2.97l-0.61,2.67h-1.75L13.95,10.21z M18.53,10.21h2.34l-0.71,2.67H17.9L18.53,10.21
	L18.53,10.21z M11.64,16.18c-0.95,0-1.72,0.76-1.72,1.7c0,0.93,0.77,1.67,1.72,1.67s1.7-0.74,1.7-1.67S12.59,16.18,11.64,16.18z
	 M18.18,16.18c-0.95,0-1.72,0.76-1.72,1.7c0,0.93,0.77,1.67,1.72,1.67s1.7-0.74,1.7-1.67S19.13,16.18,18.18,16.18z"/>
</svg>
